<svg viewBox="0 0 24 24" xmlns="http://www.w3.org/2000/svg">
<path d="M12.0179 12.9959C11.6419 12.9959 11.3018 12.8169 10.9168 12.432L3.08398 4.68864C3.37939 4.39323 3.90755 4.25 4.65951 4.25H19.0719C19.9582 4.25 20.5758 4.40218 20.9071 4.72445L13.119 12.432C12.7251 12.8258 12.3849 12.9959 12.0179 12.9959ZM2.34098 18.2327C2.1888 17.9821 2.11719 17.5345 2.11719 16.8989V7.01611C2.11719 6.39844 2.1888 5.96875 2.32308 5.7181L8.66992 11.9754L2.34098 18.2327ZM21.668 18.2238L15.3569 11.9754L21.6859 5.74495C21.8112 5.98665 21.8828 6.41634 21.8828 7.01611V16.8989C21.8828 17.5256 21.8112 17.9642 21.668 18.2238ZM4.92806 19.674C4.06868 19.674 3.47786 19.5308 3.1377 19.2354L9.57406 12.8527L10.1738 13.4525C10.7826 14.0433 11.3644 14.3118 12.0179 14.3118C12.6624 14.3118 13.2443 14.0433 13.862 13.4525L14.4528 12.8527L20.9071 19.2443C20.6117 19.5308 20.0924 19.674 19.3405 19.674H4.92806Z" fill="currentColor"/>
</svg>
