<svg viewBox="0 0 24 24" xmlns="http://www.w3.org/2000/svg">
<path d="M12 1.5C6.19852 1.5 1.5 6.19852 1.5 12C1.5 16.6465 4.50574 20.5707 8.67926 21.9613C9.20426 22.0535 9.40057 21.7385 9.40057 21.4628C9.40057 21.2135 9.38778 20.3872 9.38778 19.507C6.75 19.9928 6.06796 18.8643 5.85796 18.2744C5.73926 17.9722 5.22796 17.04 4.78057 16.7907C4.41352 16.5935 3.88852 16.1078 4.76778 16.095C5.595 16.0822 6.18574 16.8565 6.38296 17.1715C7.32796 18.7602 8.83722 18.3128 9.44074 18.037C9.53204 17.355 9.80778 16.8957 10.11 16.6328C7.77352 16.3707 5.33296 15.465 5.33296 11.4485C5.33296 10.3072 5.73926 9.36222 6.40852 8.62722C6.30352 8.36426 5.93648 7.28778 6.51352 5.84426C6.51352 5.84426 7.39278 5.56852 9.40148 6.92074C10.2415 6.68426 11.1335 6.56648 12.0265 6.56648C12.9185 6.56648 13.8115 6.68517 14.6515 6.92074C16.6602 5.55574 17.5385 5.84426 17.5385 5.84426C18.1165 7.28778 17.7485 8.36426 17.6435 8.62722C18.3128 9.36222 18.72 10.2935 18.72 11.4485C18.72 15.4778 16.2657 16.3698 13.9293 16.6328C14.31 16.9615 14.6378 17.5915 14.6378 18.5757C14.6378 19.98 14.625 21.1085 14.625 21.4628C14.625 21.7385 14.8222 22.0672 15.3463 21.9622C19.4952 20.5707 22.5 16.6328 22.5 12C22.5 6.19852 17.8015 1.5 12 1.5Z" fill="currentColor"/>
</svg>
