<svg  viewBox="0 0 24 24" xmlns="http://www.w3.org/2000/svg">
<path d="M12 21.8952C6.57188 21.8952 2.10001 17.4255 2.10001 11.9905C2.10001 6.56497 6.56251 2.09521 12 2.09521C17.4281 2.09521 21.9 6.56497 21.9 11.9905C21.9 17.4255 17.4375 21.8952 12 21.8952ZM6.30938 6.40567C6.74063 6.70553 7.28438 6.95854 7.91251 7.15532C8.34376 5.99337 8.92501 5.04694 9.60938 4.37226C8.34376 4.7752 7.21876 5.48736 6.30938 6.40567ZM14.4 4.37226C15.075 5.04694 15.6563 6.00274 16.0875 7.15532C16.7156 6.95854 17.2688 6.70553 17.6906 6.41504C16.7813 5.48736 15.6563 4.7752 14.4 4.37226ZM9.37501 7.50203C9.96563 7.60511 10.6031 7.6707 11.2781 7.69881V4.85953C10.5375 5.25309 9.86251 6.21826 9.37501 7.50203ZM12.7313 4.85953V7.69881C13.3969 7.6707 14.0344 7.60511 14.625 7.50203C14.1375 6.21826 13.4625 5.25309 12.7313 4.85953ZM4.04063 11.2596H7.12501C7.17188 10.2945 7.30313 9.37614 7.50001 8.52342C6.66563 8.26105 5.94376 7.91433 5.40001 7.5114C4.65001 8.60776 4.17188 9.88215 4.04063 11.2596ZM16.875 11.2596H19.9594C19.8375 9.88215 19.35 8.60776 18.6 7.5114C18.0563 7.91433 17.3438 8.26105 16.5 8.52342C16.7063 9.37614 16.8281 10.2945 16.875 11.2596ZM8.60626 11.2596H11.2781V9.14188C10.4625 9.11377 9.67501 9.02006 8.95313 8.88887C8.77501 9.62915 8.65313 10.435 8.60626 11.2596ZM12.7313 11.2596H15.3938C15.3469 10.435 15.2344 9.62915 15.0563 8.88887C14.325 9.02006 13.5375 9.11377 12.7313 9.14188V11.2596ZM4.04063 12.7121C4.16251 14.1083 4.65938 15.4014 5.41876 16.4978C5.96251 16.1042 6.67501 15.7669 7.50938 15.4951C7.30313 14.6424 7.17188 13.7053 7.12501 12.7121H4.04063ZM8.60626 12.7121C8.65313 13.5648 8.77501 14.38 8.95313 15.139C9.68438 14.9985 10.4625 14.9141 11.2781 14.8767V12.7121H8.60626ZM12.7313 14.8767C13.5375 14.9141 14.3156 14.9985 15.0469 15.139C15.2344 14.38 15.3563 13.5648 15.4031 12.7121H12.7313V14.8767ZM16.5 15.4951C17.3344 15.7669 18.0469 16.1042 18.5813 16.4978C19.3406 15.4014 19.8375 14.1083 19.9688 12.7121H16.875C16.8375 13.7053 16.7063 14.6424 16.5 15.4951ZM12.7313 16.3291V19.1403C13.4531 18.7467 14.1281 17.7909 14.6156 16.5259C14.025 16.4228 13.3969 16.3572 12.7313 16.3291ZM9.38438 16.5259C9.87188 17.7909 10.5469 18.7467 11.2781 19.1403V16.3291C10.6125 16.3572 9.97501 16.4228 9.38438 16.5259ZM6.32813 17.6035C7.22813 18.5124 8.35313 19.2152 9.60001 19.6088C8.92501 18.9435 8.35313 18.0064 7.92188 16.8726C7.29376 17.0694 6.75938 17.313 6.32813 17.6035ZM16.0781 16.8726C15.6563 18.0064 15.075 18.9435 14.4094 19.6088C15.6563 19.2152 16.7719 18.5124 17.6719 17.6035C17.25 17.313 16.7063 17.0694 16.0781 16.8726Z" fill="currentColor"/>
</svg>
