<svg viewBox="0 0 24 24" xmlns="http://www.w3.org/2000/svg">
<path d="M11.1642 15.6756C10.3579 15.5076 9.71126 15.1463 9.28294 14.7179C7.12454 12.5587 7.13294 9.50897 9.27454 7.3666L12.2812 4.35888C14.4228 2.21651 17.463 2.20811 19.6298 4.36728C21.7882 6.52645 21.7966 9.58458 19.6382 11.727L17.3286 14.0206C17.5722 13.1888 17.4294 12.231 17.1103 11.4833L18.1853 10.3995C19.529 9.06369 19.529 7.18177 18.1769 5.82073C16.8247 4.4765 14.9435 4.4765 13.5997 5.82073L10.7275 8.68563C9.39212 10.0299 9.39212 11.9118 10.7443 13.2644C11.1978 13.7181 11.8948 14.029 12.7179 14.1214L11.1642 15.6756ZM12.8439 8.32436C13.6417 8.49239 14.2884 8.86206 14.7167 9.28213C16.8751 11.4413 16.8667 14.491 14.7251 16.6334L11.7185 19.6411C9.57688 21.7835 6.53665 21.7919 4.36985 19.6327C2.21145 17.4735 2.21145 14.4154 4.36145 12.2814L6.67102 9.97945C6.42747 10.8112 6.57024 11.7774 6.88938 12.5251L5.81438 13.6005C4.47063 14.9447 4.47063 16.8182 5.83118 18.1793C7.17493 19.5235 9.05618 19.5235 10.3999 18.1793L13.2722 15.3144C14.6159 13.9785 14.6075 12.0882 13.2554 10.7356C12.8019 10.2819 12.1132 9.97105 11.2818 9.87863L12.8439 8.32436Z" fill="currentColor"/>
</svg>
