<svg viewBox="0 0 24 24" xmlns="http://www.w3.org/2000/svg">
<path d="M7.9082 16.373C5.08594 13.5605 2.94727 10.1621 2.94727 7.35938C2.94727 6.11914 3.36719 4.99609 4.31445 4.08789C4.89062 3.53125 5.55469 3.23828 6.19922 3.23828C6.72656 3.23828 7.20508 3.44336 7.54688 3.91211L9.64648 6.87109C9.96875 7.33008 10.1348 7.71094 10.1348 8.0625C10.1348 8.51172 9.87109 8.90234 9.44141 9.35156L8.74805 10.0645C8.64062 10.1719 8.60156 10.2988 8.60156 10.4258C8.60156 10.5723 8.66016 10.709 8.70898 10.8164C9.02148 11.4219 9.91016 12.457 10.8672 13.4141C11.834 14.3711 12.8691 15.2598 13.4746 15.582C13.5723 15.6309 13.7188 15.6895 13.8652 15.6895C13.9922 15.6895 14.1289 15.6406 14.2363 15.5332L14.9297 14.8496C15.3789 14.4102 15.7793 14.1562 16.2188 14.1562C16.5703 14.1562 16.9512 14.3125 17.4102 14.625L20.4082 16.7539C20.8672 17.0859 21.0527 17.5547 21.0527 18.043C21.0527 18.707 20.7305 19.3809 20.2129 19.957C19.3242 20.9336 18.2207 21.373 16.9609 21.373C14.1582 21.373 10.7305 19.1953 7.9082 16.373Z" fill="currentColor"/>
</svg>
