<svg viewBox="0 0 24 24" xmlns="http://www.w3.org/2000/svg">
<path d="M4.41096 4.41007C3.86301 4.95682 3.86301 5.84329 4.41096 6.39005L10.0331 12L4.41096 17.6099C3.86301 18.1567 3.86301 19.0432 4.41096 19.5899C4.95891 20.1367 5.84731 20.1367 6.39525 19.5899L12 13.9974L17.6047 19.5899C18.1527 20.1367 19.0411 20.1367 19.589 19.5899C20.137 19.0432 20.137 18.1567 19.589 17.6099L13.9669 12L19.589 6.39005C20.137 5.84329 20.137 4.95682 19.589 4.41007C19.0411 3.86331 18.1527 3.86331 17.6047 4.41007L12 10.0026L6.39525 4.41007C5.84731 3.86331 4.95891 3.86331 4.41096 4.41007Z" fill="currentColor"/>
</svg>
