<svg width="512" height="512" viewBox="0 0 512 512" fill="none" xmlns="http://www.w3.org/2000/svg">
<g clip-path="url(#clip0_23_2799)">
<rect width="512" height="512" rx="104" fill="white"/>
<path d="M275.318 236.188V169.839H227.86V105.333L158.746 126.067V169.839H121.885V236.188H158.746V317.742C158.746 382.248 185.009 409.432 275.318 400.217V337.554C244.908 339.397 227.86 337.554 227.86 317.742V236.188H275.318Z" fill="black" fill-opacity="0.81"/>
<path d="M358.113 406.668C382.073 406.668 401.885 386.855 401.885 362.896C401.885 338.937 382.073 319.124 358.113 319.124C334.154 319.124 314.342 338.937 314.342 362.896C314.342 386.855 334.154 406.668 358.113 406.668Z" fill="black" fill-opacity="0.81"/>
</g>
<defs>
<clipPath id="clip0_23_2799">
<rect width="512" height="512" fill="white"/>
</clipPath>
</defs>
</svg>
